<svg xmlns="http://www.w3.org/2000/svg" width="440" height="340" viewBox="0 0 440 340" role="img" aria-label="Ember: Turns customer conversations into product decisions teams can explain, prioritize, and measure.">
<style>
  .box { fill: #fcfcfc; stroke: #e4e4e7; }
  .accent { stroke: #f97316; }
  .wordmark, .name { fill: #18181b; }
  .caption { fill: #a1a1aa; }
  .body { fill: #52525b; }
  @media (prefers-color-scheme: dark) {
    .box { fill: #0d1117; stroke: #27272a; }
    .accent { stroke: #fb923c; }
    .wordmark, .name { fill: #f4f4f5; }
    .caption { fill: #71717a; }
    .body { fill: #a1a1aa; }
  }
</style>
  <rect class="box" x="0.5" y="0.5" width="439" height="219" rx="16"/>
  <g class="accent" transform="translate(200.0 58) scale(1.6666666666666667)" fill="none" stroke-width="1.5" stroke-linecap="round" stroke-linejoin="round">
    <path d="M8.5 14.5A2.5 2.5 0 0 0 11 12c0-1.38-.5-2-1-3-1.072-2.143-.224-4.054 2-6 .5 2.5 2 4.9 4 6.5 2 1.6 3 3.5 3 5.5a7 7 0 1 1-14 0c0-1.153.433-2.294 1-3a2.5 2.5 0 0 0 2.5 2.5z"/>
  </g>
  <text class="wordmark" x="220.0" y="136" text-anchor="middle" font-family="-apple-system, BlinkMacSystemFont, 'Inter', 'Segoe UI', Helvetica, Arial, sans-serif" font-size="26" font-weight="900" letter-spacing="-0.5">Ember</text>
  <text class="caption" x="220.0" y="162" text-anchor="middle" font-family="-apple-system, BlinkMacSystemFont, 'Inter', 'Segoe UI', Helvetica, Arial, sans-serif" font-size="10" font-weight="500" letter-spacing="2">CUSTOMER INTELLIGENCE</text>
  <g font-family="-apple-system, BlinkMacSystemFont, 'Inter', 'Segoe UI', Helvetica, Arial, sans-serif" font-size="16">
  <text class="name" x="4" y="250" font-weight="500">Ember</text>
  <text class="body" x="4" y="278">Turns customer conversations into product</text>
  <text class="body" x="4" y="302">decisions teams can explain, prioritize, and</text>
  <text class="body" x="4" y="326">measure.</text>
  </g>
</svg>
